<?xml version="1.0" encoding="utf-8"?>
<svg xmlns="http://www.w3.org/2000/svg" xmlns:svg="http://www.w3.org/2000/svg" version="1.1" viewBox="0 0 322 151">
	<title>A sketch of the bedroom, adjoining maid’s room, and corridor.</title>
	<path d="m 114.94103,146.73027 -0.24407,-0.0589 -36.640007,-0.16656 -36.640002,-0.16657 -14.24,-0.0301 -14.24,-0.0301 -2.48,-0.34125 -2.4799998,-0.34126 v -0.20621 -0.20621 l 0.72,-0.46261 0.72,-0.46262 4.9599998,0.0825 4.96,0.0825 1.76,0.17442 1.76,0.17441 54.880002,0.12877 54.880007,0.12876 29.11999,0.0591 29.12,0.0591 2.08,-0.052 2.08,-0.052 0.8,-0.0227 0.8,-0.0227 25.76,-0.12623 25.76,-0.12623 0.48,-0.0459 0.48,-0.0459 7.04,0.20867 7.04,0.20867 7.2,0.13871 7.2,0.13871 1.92,-0.0177 1.92,-0.0177 14.02154,-0.0244 14.02154,-0.0244 0.35713,0.35713 0.35712,0.35713 -0.18986,0.18986 -0.18986,0.18986 -1.2288,0.10243 -1.22881,0.10242 v 0.045 0.045 l -7.84,-0.0579 -7.84,-0.0579 -12.64,-0.01 -12.64,-0.01 -11.36,0.0359 -11.36,0.0358 -0.64,0.008 -0.64,0.008 -54.88,-0.0189 -54.87999,-0.0189 -1.12,0.0743 -1.12,0.0743 -7.59593,0.0369 -7.59592,0.0369 -0.24408,-0.0589 z m 38.07989,-7.95034 -0.69843,-0.48919 -0.21287,-1.13471 -0.21287,-1.1347 0.3601,-0.3601 0.3601,-0.3601 v -0.54285 -0.54285 l 1.13113,-0.99315 1.13113,-0.99315 h 0.92731 0.9273 l 0.20222,0.63714 0.20222,0.63713 -0.18652,0.3018 -0.18652,0.30179 -1.0707,-0.17375 -1.07069,-0.17375 -0.30861,0.91482 -0.30862,0.91482 0.0282,0.96 0.0282,0.96 1.35697,-0.10159 1.35698,-0.1016 v 0.4973 0.4973 l -1.15908,0.4843 -1.15908,0.48429 h -0.36972 -0.36972 z m 5.35603,-0.0574 -0.48,-0.18937 -0.23511,-0.35202 -0.23509,-0.35202 -0.005,-0.82422 -0.005,-0.82422 0.74063,-0.69578 0.74062,-0.69578 h 0.87483 0.87483 l 0.42273,1.00538 0.42273,1.00537 -0.15276,0.58414 -0.15276,0.58414 -0.36721,0.30476 -0.36722,0.30476 -0.7982,0.16711 -0.79822,0.16712 -0.48,-0.18937 z m 1.73356,-1.33064 0.17134,-0.27724 -0.58657,-0.53083 -0.58657,-0.53085 -0.38363,0.46225 -0.38362,0.46224 0.57774,0.3361 0.57775,0.3361 0.22111,0.01 0.22112,0.01 0.17133,-0.27723 z m 21.94644,1.07723 -0.39836,-0.48 h -0.76082 -0.76082 l -1.1e-4,0.24 -1.2e-4,0.24 -1.67045,0.0706 -1.67044,0.0706 -0.72944,-0.47795 -0.72944,-0.47794 v -0.67473 -0.67473 l 1.45111,-1.4511 1.4511,-1.4511 -0.0479,-0.5068 -0.048,-0.50679 0.0369,-0.42225 0.0368,-0.42226 0.72,0.10226 0.72,0.10225 -0.0886,2.45581 -0.0886,2.4558 0.35809,0.22131 0.3581,0.22132 0.9194,-1.11539 0.9194,-1.11539 1.09946,-0.52173 1.09946,-0.52173 h 0.34513 0.34514 l 0.6465,1.26725 0.6465,1.26725 v 0.65275 0.65275 l -0.64,0.64 -0.64,0.64 h -1.24081 -1.24082 z m 2.50674,-1.55399 0.11328,-0.59399 -0.34244,-0.34245 -0.34245,-0.34245 -0.62598,0.56651 -0.62598,0.5665 0.17914,0.46686 0.17915,0.46685 0.676,-0.0969 0.67601,-0.0969 z m -6.40448,-0.44601 0.10226,-0.72 h -0.491 -0.491 l -0.33126,0.61896 -0.33126,0.61897 v 0.20329 0.20329 l 0.72,-0.10225 0.72,-0.10226 z m 9.53198,1.97383 -0.19424,-0.50617 v -0.73068 -0.73067 l -0.65011,-0.82648 -0.65011,-0.82649 0.6622,-0.35439 0.6622,-0.3544 0.62791,0.19929 0.62791,0.19929 v -0.48151 -0.4815 l 1.36,0.0156 1.36,0.0156 0.56,0.29562 0.56,0.29561 v 0.46874 0.46874 h -1.40082 -1.40081 l -0.38499,0.46389 -0.38499,0.46388 0.0982,0.93611 0.0982,0.93611 -0.43156,0.52001 -0.43157,0.52 h -0.24658 -0.24658 l -0.19424,-0.50617 z m -24.32544,-0.0872 -0.19087,-0.30885 0.15767,-0.42887 0.15768,-0.42888 -0.23664,-0.35209 -0.23664,-0.3521 -0.74066,-0.39022 -0.74066,-0.39022 0.37728,-0.45459 0.37727,-0.45459 0.78805,0.19778 0.78803,0.19779 0.73535,-0.39355 0.73534,-0.39354 0.68,0.36392 0.68,0.36393 v 0.44331 0.44332 l -0.94131,0.20675 -0.94132,0.20674 -0.0987,1.01606 -0.0987,1.01606 -0.53016,0.10034 -0.53016,0.10034 z m 9.57516,-0.11048 -0.63604,-0.37303 -0.52965,-0.65409 -0.52965,-0.6541 -1.01457,-0.051 -1.01456,-0.051 0.17021,0.44357 0.17022,0.44357 -0.18419,0.48 -0.1842,0.48 h -0.39722 -0.39722 l -0.52366,-1.3331 -0.52366,-1.33309 0.30301,-0.3651 0.303,-0.3651 1.85211,0.21674 1.85211,0.21675 0.304,-0.27855 0.304,-0.27855 h 0.376 0.376 v 0.79902 0.79901 l 0.39919,0.48099 0.39918,0.48098 h 0.46428 0.46428 l -0.10714,0.55633 -0.10714,0.55632 -0.47632,0.0782 -0.47633,0.0782 z m 18.07604,-10.38294 v -0.27806 l -48.08,0.0256 -48.079998,0.0256 -2.72,-1.25427 -2.72,-1.25426 -2.054774,-0.77513 -2.054774,-0.77513 -0.345226,-0.28185 -0.345226,-0.28185 -2.055171,-0.83187 -2.055171,-0.83187 h -0.381328 -0.381331 l 0.0365,1.15699 0.0365,1.15699 -0.551194,0.35582 -0.55119,0.35581 -0.400797,-0.40079 -0.400794,-0.4008 0.386586,-0.61902 0.386585,-0.61902 -0.188697,-0.94348 -0.188698,-0.94349 0.653063,-0.3495 0.653062,-0.34951 h 0.917037 0.917036 l 0.304,0.26436 0.304,0.26435 1.44,0.44109 1.44,0.44108 3.70505,1.85456 3.705053,1.85456 H 92.978 93.60895 l 0.310957,0.31095 0.310957,0.31096 2.073043,0.26597 2.073043,0.26597 1.600005,-0.0624 1.600005,-0.0624 6.08,-0.0338 6.08,-0.0338 9.12,0.27699 9.12,0.277 15.35999,-0.10511 15.36,-0.10511 7.84,-0.20657 7.84,-0.20657 20.41355,0.0253 20.41353,0.0254 -0.20108,-0.32538 -0.20109,-0.32537 0.3348,-0.40341 0.33481,-0.40342 -0.1139,-15.16863 -0.11391,-15.168635 0.76665,-1.12822 0.76664,-1.12822 v -0.3442 -0.34402 l 0.83179,-1.00404 0.83178,-1.00403 0.52822,-0.96098 0.52821,-0.96098 0.8668,-1.61668 0.86679,-1.61667 h -0.63683 -0.63684 l -0.18733,-0.48817 -0.18733,-0.48817 -0.43855,0.36397 -0.43856,0.36397 -0.48407,-0.18576 -0.48408,-0.18576 v -0.50009 -0.50008 l 0.48408,-0.18576 0.48407,-0.18576 0.40666,0.3375 0.40666,0.33749 0.45202,-0.27937 0.45203,-0.27936 0.57724,0.30893 0.57724,0.30893 v 0.50298 0.50298 l 0.48726,-0.18698 0.48726,-0.18698 0.68133,0.68133 0.68133,0.68133 -0.97284,0.83141 -0.97284,0.83141 -0.9092,1.59345 -0.90921,1.59346 -0.56654,0.56654 -0.56655,0.56655 v 0.34769 0.34768 l -1.04,1.44953 -1.04,1.44953 0.10325,14.282795 0.10325,14.28278 0.0567,1.6 0.0568,1.6 0.64,-0.0798 0.64,-0.0799 11.60704,-0.0108 11.60703,-0.0108 0.87297,-0.33568 0.87296,-0.33567 1.25883,-0.12856 1.25883,-0.12856 0.32517,-0.32517 0.32517,-0.32517 h 0.43356 0.43356 l 1.34244,-0.59442 1.34244,-0.59442 3.47955,-1.38631 3.47954,-1.3863 0.64511,-0.52238 0.64511,-0.52238 -0.57403,-0.87609 -0.57404,-0.87608 0.48406,-0.48406 0.48405,-0.48405 0.75854,1.22324 0.75854,1.22325 0.16678,0.32 0.16679,0.32 0.54383,0.8 0.54383,0.8 0.21707,1.36 0.21707,1.36 h -0.48208 -0.48207 l -0.38806,-0.93687 -0.38807,-0.93686 -0.59032,-0.53423 -0.59031,-0.53423 -1.54045,0.8043 -1.54044,0.8043 -0.81886,0.17755 -0.81885,0.17754 -2.34546,1.28925 -2.34546,1.28925 h -0.24284 -0.24285 l -1.92767,0.95642 -1.92768,0.95642 -3.94516,-0.0172 -3.94517,-0.0173 -6.88,0.24486 -6.88,0.24486 -4.16,-0.0637 -4.16,-0.0637 -12.87285,-0.0162 -12.87286,-0.0162 -1.12714,0.21146 -1.12715,0.21145 v -0.27805 z m -141.814389,-0.27424 -0.18097,-0.18096 -6.84232,-0.17365 -6.84232,-0.17364 -0.64,0.0521 -0.64,0.0521 -0.64,-0.0417 -0.64,-0.0416 -12.38371,-0.0658 -12.3837098,-0.0658 -0.33805,-0.33776 -0.33806,-0.33777 0.61691,-0.66217 0.61691,-0.66217 1.38486,-0.20743 1.3848498,-0.20743 1.28,0.14188 1.28,0.14187 2.72,0.18302 2.72,0.18302 5.44,0.22731 5.44,0.22731 1.87163,-0.0431 1.87164,-0.0431 0.14256,-0.14256 0.14256,-0.14256 0.14393,-10.03914 0.14393,-10.03914 0.18655,-8.800005 0.18655,-8.8 -0.008,-12.96 -0.008,-12.96 -0.0132,-3.36 -0.0132,-3.36 -0.0319,-6.87909 -0.0319,-6.87909 -0.44554,-0.96091 -0.44554,-0.9609 -1.59509,-3.00308 -1.59507,-3.00307 -0.42442,-0.51693 -0.42441,-0.51692 -0.45353,-0.90478 -0.45354,-0.90478 -0.55741,-0.29832 -0.55742,-0.29832 -1.14498,0.6431 -1.14498,0.6431 h -0.47027 -0.47027 v -0.34136 -0.34135 l 0.83798,-1.09865 0.83798,-1.09864 h 0.45498 0.45498 l 0.92394,-0.6831 0.92394,-0.6831 0.43632,0.16743 0.43633,0.16743 1.67106,3.31567 1.67107,3.31567 0.87571,1.61709 0.87571,1.6171 0.71652,0.9429 0.71652,0.94291 0.33563,0.3995 0.33564,0.3995 -0.16174,7.6005 -0.16175,7.60049 -0.18493,11.68 -0.18494,11.68 -0.14325,9.76 -0.14326,9.76 -0.19606,11.680005 -0.19606,11.68 6.4e-4,2.02021 6.4e-4,2.02021 0.22081,0.21979 0.22081,0.21979 12.21231,-0.0924 12.212315,-0.0924 0.32,0.0282 0.32,0.0282 8.014669,0.17566 8.014668,0.17566 0.424512,-0.51151 0.424516,-0.5115 h 0.43472 0.434723 l 0.206665,0.82343 0.206669,0.82342 -0.321449,0.32145 -0.32145,0.32145 -14.199123,0.10587 -14.199115,0.10588 -0.49672,0.1992 -0.49672,0.1992 -0.18096,-0.18097 z m 218.934389,-0.0961 -1.76,-0.0972 -0.72,-0.83256 -0.72,-0.83255 v -0.57134 -0.57135 l 0.31942,-0.19741 0.31941,-0.19741 0.73183,0.85081 0.73184,0.85081 11.02875,0.12622 11.02875,0.12622 1.15333,-0.17875 1.15333,-0.17874 -0.24448,-1.33699 -0.24449,-1.33699 0.14774,-0.23905 0.14775,-0.23905 -0.0463,-17.68372 -0.0463,-17.683725 0.0144,-1.12 0.0144,-1.12 -0.003,-22.72 -0.003,-22.71999 0.0176,-0.8 0.0176,-0.8 -0.003,-12 -0.003,-12 -0.0763,-3.11935 -0.0764,-3.1193598 -0.48,-0.0296 -0.48,-0.0296 -12.72078,0.0474 -12.72078,0.0474 -0.2763,-0.17076 -0.2763,-0.17077 0.15439,-0.80763 0.15447,-0.80764 h 0.58381 0.58381 l 0.21391,0.34611 0.2139,0.3461 7.08498,-0.19577 7.08498,-0.19578 7.36,-0.16147 7.36,-0.16148 2.4,-0.10991 2.4,-0.10992 5.79648,-0.23349 5.79649,-0.23349 0.68351,0.36581 0.68352,0.36581 v 0.46136 0.46136 l -0.86599,0.56738 -0.86598,0.56738 -4.81402,-0.12189 -4.81401,-0.12189 -4.09846,0.007 -4.09846,0.007 -0.17799,0.17799 -0.17799,0.17799 -0.0436,59.0690898 -0.0435,59.069115 4.32,-0.17741 4.32,-0.17741 3.89245,-0.14079 3.89246,-0.14079 0.40005,0.48204 0.40006,0.48204 -0.45251,0.45143 -0.45251,0.45144 -7.52,-0.009 -7.52,-0.009 -1.6,-0.004 -1.6,-0.004 -7.2,-0.0363 -7.2,-0.0363 -2.94156,0.0315 -2.94157,0.0315 -0.25843,0.11028 -0.25844,0.11029 z m -137.49396,-3.58279 -7.73396,-0.16 -0.19402,-0.19464 -0.19402,-0.19465 0.0137,-6.36535 0.0137,-6.36536 0.15242,-5.44 0.15241,-5.440005 0.13149,-2.82298 0.13149,-2.82299 0.20376,-0.20375 0.20375,-0.20376 7.90659,0.0868 7.9066,0.0868 2.37942,0.13718 2.37943,0.13718 0.21536,0.34846 0.21536,0.34846 -0.10439,5.01427 -0.1044,5.014265 -0.14286,9.23646 -0.14285,9.23646 -0.26754,0.25949 -0.26754,0.25949 -2.56,0.10405 -2.55999,0.10405 -7.73397,-0.16 z m 12.0673,-1.94493 0.33152,-0.61946 0.0222,-9.6778 0.0222,-9.67781 -0.059,-2.081665 -0.059,-2.08167 -0.22361,-1.09334 -0.22361,-1.09334 -8.86623,-0.0584 -8.86624,-0.0584 -0.1677,0.99339 -0.1677,0.99339 -0.24779,6.719995 -0.24778,6.72 0.0266,5.51026 0.0267,5.51026 0.14308,0.14094 0.14307,0.14094 6.24,0.2688 6.24,0.2688 2.80091,-0.10273 2.8009,-0.10273 0.33152,-0.61947 z m -62.671466,-2.9212 -0.377391,-0.37739 0.693539,-0.73824 0.693542,-0.73824 h 0.584218 0.58422 l -0.0049,0.24 -0.0049,0.24 -0.235097,0.32 -0.235101,0.32 -0.660368,0.55563 -0.660371,0.55563 -0.377389,-0.37739 z m 2.391463,-2.0672 -0.213335,-0.21333 v -0.56488 -0.56488 l 0.971357,-0.69166 0.97136,-0.69167 0.46864,0.17983 0.468643,0.17984 v 0.52 0.52 l -0.629401,0.16459 -0.629402,0.16459 -0.192163,0.60545 -0.192163,0.60545 h -0.405101 -0.405104 z m 177.786663,-0.6386 -0.4,-0.1614 v -0.5791 -0.57909 l 0.45661,-0.17522 0.4566,-0.17522 0.3792,0.45691 0.37919,0.4569 -0.18575,0.48408 -0.18576,0.48407 -0.25005,-0.0253 -0.25004,-0.0252 -0.4,-0.1614 z m -101.58832,-4.47352 -0.52545,-0.52546 -1.06312,-0.0845 -1.06311,-0.0845 -1.04784,0.43685 -1.04785,0.43686 -0.55215,-0.19334 -0.55216,-0.19334 -0.52079,-0.64585 -0.52078,-0.64585 -0.36311,0.67847 -0.3631,0.67847 -1.08242,0.20306 -1.08242,0.20307 -0.64874,-0.3472 -0.64874,-0.3472 -0.50495,-0.50495 -0.50495,-0.50495 v -1.08209 -1.08208 l -0.3648,-0.80064 -0.36479,-0.80064 0.3851,-0.92972 0.3851,-0.92972 1.45964,0.10927 1.45964,0.10928 0.47135,0.39118 0.47135,0.39118 -0.159,0.97981 -0.15901,0.97982 0.579,0.71503 0.579,0.71503 h 0.34871 0.34871 v -0.45821 -0.45821 l 0.92939,-0.66179 0.9294,-0.66179 h 0.48391 0.48392 l 0.6472,0.88 0.6472,0.88 0.57949,-0.5703 0.57949,-0.57031 0.34204,-1.01038 0.34205,-1.01037 0.35756,-0.11919 0.35755,-0.11918 0.5089,0.77667 0.5089,0.77668 -0.34172,0.89878 -0.34172,0.89879 0.19856,0.90401 0.19855,0.90401 0.68074,0.4768 0.68074,0.47681 -0.62608,0.47341 -0.62607,0.47342 -0.17143,0.0102 -0.17143,0.0102 -0.52546,-0.52546 z m -8.25658,-1.47455 -0.005,-0.4 -0.24161,-0.37998 -0.24161,-0.37998 -0.89432,-0.34002 -0.89433,-0.34002 h -0.29907 -0.29916 v 0.29917 0.29917 l 0.31208,0.82083 0.31208,0.82083 h 1.12792 1.12792 l -0.005,-0.4 z m 4.6449,0.08 0.19776,-0.32 h -0.32 -0.32 l -0.19776,0.32 -0.19777,0.32 h 0.32 0.32 z m 2.72,-1.14666 v -0.50667 l -0.38,0.12667 -0.38,0.12666 -0.12667,0.38 -0.12667,0.38 h 0.50667 0.50667 z m -8.96,-2.24757 v -0.44577 h -0.48 -0.48 v 0.62996 0.62996 l 0.48,-0.1842 0.48,-0.18419 z m 100.24839,-2.45266 -0.88839,-0.67219 -0.12649,-0.0936 -0.1265,-0.0936 -0.0643,-1.20684 -0.0643,-1.20684 0.29404,-0.85679 0.29405,-0.856785 0.92749,-0.32333 0.92749,-0.32332 0.94523,0.47154 0.94523,0.47155 0.32871,1.532725 0.32871,1.53272 -0.16217,0.61585 -0.16217,0.61584 -1.25408,0.53266 -1.25409,0.53265 z m 2.1404,-1.49216 0.3313,-0.61904 -0.31212,-0.82096 -0.31213,-0.82095 h -0.77368 -0.77368 l -0.19424,0.50617 -0.19424,0.50617 v 0.62415 0.62414 l 0.72,0.2894 0.72,0.28941 0.22874,0.0203 0.22874,0.0203 0.33131,-0.61905 z m -12.88653,1.54349 -0.57774,-0.33609 -0.29434,-0.77418 -0.29434,-0.77417 h -0.49584 -0.49584 l -0.30416,0.8 -0.30416,0.8 h -0.14506 -0.14506 l -0.50286,-0.50285 -0.50286,-0.50286 v -2.03429 -2.034285 l 0.45275,-0.45275 0.45274,-0.45274 0.98105,-0.40637 0.98104,-0.40636 0.80134,0.20113 0.80134,0.20112 0.20602,0.82086 0.20602,0.82087 -0.68115,0.921305 -0.68115,0.9213 0.009,0.25296 0.009,0.25296 1.03119,0.73486 1.03119,0.73486 0.60889,0.4166 0.60889,0.41659 -0.22777,0.36855 -0.22778,0.36854 -0.86111,-0.01 -0.86112,-0.01 -0.57774,-0.3361 z m -1.35349,-4.3122 0.54237,-0.827775 -0.16145,-0.16145 -0.16146,-0.16145 -0.66411,0.21078 -0.66412,0.21078 v 0.778445 0.77843 h 0.2832 0.2832 z m 5.37123,3.91659 -1.04,-0.34118 v -1.55486 -1.55486 l 0.32949,-0.61565 0.32949,-0.615655 0.93252,-0.48224 0.93253,-0.48222 0.80125,0.30463 0.80125,0.30463 0.55007,0.839525 0.55007,0.83951 v 1.46006 1.46007 l -0.59449,0.43471 -0.5945,0.4347 -0.97884,-0.045 -0.97884,-0.045 z m 2.95493,-1.47283 0.19805,-0.62401 -0.48465,-0.93722 -0.48466,-0.93721 -0.46177,-0.1772 -0.46177,-0.177205 -0.51006,0.563625 -0.51007,0.56361 v 0.73953 0.73953 l 0.56,0.4251 0.56,0.4251 0.69844,0.0102 0.69843,0.0102 0.19806,-0.62401 z m 13.87769,1.184 -0.0474,-0.4 -0.0511,-0.48 -0.0511,-0.48 -0.25624,-0.88 -0.25623,-0.88 h -0.13657 -0.13657 l -0.79694,0.52218 -0.79694,0.52217 -0.63936,-0.57861 -0.63936,-0.57862 -0.32776,0.32776 -0.32776,0.32776 0.37739,0.82828 0.37739,0.82827 -0.19203,0.50041 -0.19202,0.5004 h -0.49005 -0.49004 l -0.0377,-0.56 -0.0377,-0.56 -0.0527,-1.12 -0.0527,-1.12 0.30175,-0.720005 0.30174,-0.72 h 0.40781 0.4078 l 0.84752,0.32223 0.84753,0.32223 0.81646,-0.64223 0.81646,-0.64223 h 0.38001 0.38 l 0.85684,1.30872 0.85684,1.308725 v 0.45128 0.45128 h -0.32 -0.32 v 1.12 1.12 h -0.64 -0.64 z m -10.483,-9.464655 -0.31289,-0.58464 -0.21959,-1.65536 -0.21959,-1.65535 h -0.30873 -0.30873 l -0.15963,0.61042 -0.15963,0.61041 -0.68489,0.1791 -0.6849,0.17911 -0.30952,-0.30952 -0.30952,-0.30952 h -0.256 -0.256 v 1.42112 1.42111 l -0.29112,0.17992 -0.29112,0.17993 -0.48264,-0.18521 -0.48265,-0.18521 -0.10623,-1.97583 -0.10624,-1.97583 0.10028,-0.70487 0.10027,-0.70487 0.64976,-0.20623 0.64976,-0.20622 0.87438,0.83771 0.87438,0.83771 0.61201,-0.67625 0.612,-0.67626 0.60092,-0.3216 0.60091,-0.32159 0.40722,0.43123 0.40721,0.43124 0.21948,2.96 0.21947,2.96 h -0.33276 -0.33277 z m 6.76581,0.18113 -0.3171,-0.39648 -0.22073,-0.72 -0.22073,-0.72 h -0.93843 -0.93844 v 0.60082 0.60082 l -0.43754,0.36313 -0.43754,0.36312 -0.36658,-0.44169 -0.36657,-0.4417 0.36429,-1.72225 0.36429,-1.72225 0.46401,-1.05932 0.46401,-1.05932 0.45989,-0.17648 0.45989,-0.17648 0.4232,0.35122 0.42319,0.35122 0.40392,1.36458 0.40392,1.36458 0.26692,0.52061 0.26692,0.5206 0.21063,1.12275 0.21063,1.12275 -0.31248,0.19312 -0.31248,0.19312 z m -1.36033,-3.51648 -0.005,-0.4 -0.3151,-0.48 -0.3151,-0.48 -0.3151,0.48 -0.3151,0.48 -0.005,0.4 -0.005,0.4 h 0.64 0.64 l -0.005,-0.4 z m 4.8879,3.2 -0.31537,-0.4 -0.19262,-2.4 -0.19262,-2.4 0.29548,-0.47732 0.29548,-0.47733 0.33187,0.33187 0.33188,0.33188 0.20699,2.44869 0.20699,2.44869 0.45474,0.1745 0.45475,0.1745 -0.19917,0.32226 -0.19917,0.32226 h -0.58193 -0.58193 z m 10.37034,0.18667 -0.21334,-0.21333 v -0.41693 -0.41692 l 1.13612,0.0427 1.13612,0.0427 0.50764,-0.50765 0.50764,-0.50764 -0.19372,-0.50481 -0.19371,-0.50481 h -0.74889 -0.74888 l -0.54888,-0.40136 -0.54889,-0.40136 0.20253,-1.01269 0.20254,-1.01269 0.77176,-0.19369 0.77175,-0.1937 0.66085,0.35367 0.66083,0.35367 -0.17727,0.17728 -0.17728,0.17728 -0.70362,0.0368 -0.70363,0.0368 -0.13317,0.4 -0.13317,0.4 h 0.98667 0.98666 l 0.64,0.64 0.64,0.64 v 0.50104 0.50103 l -0.32948,0.61566 -0.32949,0.61565 -0.93462,0.48331 -0.93463,0.48331 h -0.92255 -0.92256 z m -6.75847,-0.80394 -0.16875,-0.74273 0.0769,-2.24 0.0769,-2.24 1.76,-0.0828 1.76,-0.0828 0.78755,0.40606 0.78754,0.40606 0.21305,1.0417 0.21305,1.04169 -0.40979,1.19507 -0.40978,1.19506 -0.59081,0.11106 -0.59081,0.11106 -0.304,0.28894 -0.304,0.28894 h -0.416 -0.416 v -0.50996 -0.50996 l 0.6251,-0.16346 0.6251,-0.16347 0.51631,-0.78799 0.51631,-0.78799 -0.42141,-0.53858 -0.42141,-0.53859 -0.48,-0.38982 -0.48,-0.38983 -0.70111,-0.0102 -0.70112,-0.0102 -0.1801,0.29142 -0.18011,0.29141 -0.0115,0.74859 -0.0115,0.74858 0.0928,1.25036 0.0928,1.25036 -0.3882,0.13238 -0.3882,0.13237 -0.16874,-0.74273 z m -224.514929,-3.69624 -0.0201,-0.24649 0.0708,-5.6 0.0707,-5.6 0.0293,-5.12 0.0293,-5.12 3.84,0.0249 3.84,0.0249 3.12891,0.0551 3.12891,0.0551 -0.201062,2 -0.201063,2 -0.207849,8.8 -0.20785,8.8 -6.639996,0.0865 -6.64,0.0865 -0.0201,-0.24649 z m 11.63041,-2.00649 0.32627,-0.8 0.0317,-8.28866 0.0317,-8.28866 -0.48,-0.11058 -0.48,-0.11057 -1.44,-0.24202 -1.44,-0.24202 -1.92,0.0272 -1.92,0.0272 -1.53055,0.054 -1.53055,0.0541 0.0454,2.32 0.0454,2.32 -0.0873,6.64083 -0.0873,6.64083 0.20013,0.20014 0.20014,0.20014 1.85237,0.19903 1.85236,0.19903 h 3.00204 3.00203 l 0.32628,-0.8 z m 180.817119,-0.18151 -0.19245,-0.50151 0.38404,-0.37849 0.38403,-0.37849 0.44821,0.60714 0.4482,0.60715 -0.16863,0.27285 -0.16864,0.27286 h -0.47116 -0.47115 z m -2.23175,-1.57849 -0.18419,-0.48 0.18419,-0.48 0.1842,-0.48 h 0.45086 0.45086 l 0.39498,0.47593 0.39498,0.47592 -0.18575,0.48408 -0.18576,0.48407 h -0.66009 -0.66008 z m -9.08544,-3.22556 -0.30896,-0.81262 -0.16653,-27.74091 -0.16653,-27.7409 -0.167,-6.72 -0.16699,-6.72 -0.1063,-0.8 -0.10629,-0.8 -0.0408,-1.35434 -0.0408,-1.3543398 -9.52,0.17117 -9.52,0.17116 -1.92,0.0934 -1.92,0.0934 -2.23634,-0.514 -2.23633,-0.51399 -0.0919,-0.47625 -0.0919,-0.47626 h 3.12824 3.12824 l 1.6,-0.11454 1.6,-0.11455 6.4,0.0137 6.4,0.0137 4.48,-0.1158 4.48,-0.11581 8.32,-0.20842 8.32,-0.20843 2.56,-0.11326 2.56,-0.11327 1.02959,-0.21954 1.02958,-0.21955 0.39222,0.86083 0.39223,0.86083 -0.46181,0.29219 -0.46181,0.29218 -2.4,0.0282 -2.4,0.0282 -2.88,0.13745 -2.88,0.13746 -6.72,0.11472 -6.72,0.11472 -0.52226,0.22424 -0.52226,0.22424 -0.16612,1.1802498 -0.16613,1.18025 -0.0292,13.76 -0.0292,13.75999 0.34641,8.64 0.34641,8.64 0.10885,8 0.10885,8 0.066,5.4168 0.066,5.4168 -0.69399,0.25673 -0.694,0.25672 -0.30895,-0.81262 z M 70.4703,81.997995 69.914719,81.349125 h -0.916678 -0.916682 l -0.362358,-0.96 -0.362362,-0.96 h -0.388588 -0.388589 l -0.101255,0.88 -0.101254,0.88 H 65.922991 65.46903 l -0.56265,-0.96 -0.562649,-0.96 -0.02339,-0.2357 -0.02339,-0.23571 1.161737,-0.4854 1.161741,-0.48541 1.318259,0.0811 1.318262,0.0811 0.0985,-1.01617 0.0985,-1.01617 0.485891,-0.40325 0.485891,-0.40326 0.308122,0.45943 0.308118,0.45942 -0.127027,1.6 -0.127027,1.6 0.141184,0.4 0.141187,0.4 h 0.754448 0.754448 l 0.193683,0.31339 0.193683,0.31339 -0.342131,0.63928 -0.342134,0.63927 -0.628202,0.33621 -0.628205,0.3362 -0.555577,-0.64887 z m -7.933347,-0.15528 -0.32,-0.0959 -1.36961,-0.41324 -1.369609,-0.41324 -0.37439,0.37439 -0.374391,0.37439 h -0.377177 -0.377178 l -0.397645,-0.96 -0.397645,-0.96 h -0.164483 -0.164483 l -0.741414,0.8 -0.741415,0.8 h -0.322435 -0.322435 l -0.368765,-1.36 -0.368765,-1.36 -0.302524,-0.8308 -0.302525,-0.83081 0.213136,-0.84919 0.213136,-0.8492 h 0.259136 0.259139 l 0.442473,-0.16979 0.442474,-0.1698 0.03088,1.08952 0.03088,1.08952 0.348938,0.65199 0.34894,0.652 0.797242,-0.37172 0.797245,-0.37172 -0.708589,-0.53811 -0.708586,-0.53812 0.207812,-0.20781 0.207814,-0.20781 0.667405,0.35718 0.667408,0.35719 v 0.32762 0.32763 l 0.32,-0.19777 0.32,-0.19777 v -0.80215 -0.80215 l 0.331257,-0.61897 0.331261,-0.61896 h 0.788739 0.788743 l -0.005,0.4 -0.005,0.4 -0.432992,1.84 -0.432992,1.84 h 0.53399 0.53399 l 0.347092,-0.34709 0.347094,-0.3471 0.741731,0.1071 0.741731,0.10709 0.01517,1.11812 0.01517,1.11813 0.612452,0.002 0.612451,0.002 0.115837,0.34486 0.115833,0.34486 -0.823344,0.37514 -0.823344,0.37514 -0.06494,-0.0252 -0.06494,-0.0252 -0.32,-0.0959 z m 22.662777,-0.23398 -0.697222,-0.33708 -0.394653,-0.95278 -0.394653,-0.95277 -0.393446,0.73516 -0.393447,0.73516 -0.589568,0.20681 -0.589568,0.20681 -0.56511,-0.14778 -0.565111,-0.14778 v -0.50302 -0.50302 l -0.629174,0.67534 -0.629174,0.67534 -0.666493,0.21154 -0.666496,0.21154 -0.78433,-0.51392 -0.784332,-0.51391 v -0.43344 -0.43344 l -0.48,-0.39837 -0.48,-0.39836 v 0.96 0.96 l -0.446096,0.37022 -0.4461,0.37023 -0.5139,-0.5139 -0.513904,-0.5139 v -0.74291 -0.7429 l -0.48,-0.1842 -0.48,-0.18419 v -0.49005 -0.49004 l 1.2,-0.0231 1.2,-0.0231 1.12,-0.0942 1.12,-0.0942 0.704457,-0.23594 0.704458,-0.23594 0.815542,0.87998 0.815542,0.87999 0.04084,-0.28673 0.04084,-0.28672 0.07587,-0.72833 0.07587,-0.72833 -0.449693,-0.25166 -0.449693,-0.25166 0.207223,-0.54001 0.207222,-0.54001 h 0.567782 0.567783 l 0.917981,1.19067 0.91798,1.19069 0.16,0.5882 0.16,0.58821 0.32,0.0611 0.32,0.0611 0.109178,-0.8 0.109174,-0.8 0.50042,-0.56 0.500422,-0.56 h 0.699037 0.69904 l 0.390067,0.8561 0.390064,0.8561 -0.658701,0.89094 -0.658701,0.89094 v 0.33296 0.33296 h 0.490042 0.490045 l 0.196585,0.51229 0.196586,0.5123 -0.446627,0.2828 -0.446631,0.2828 -0.32,-0.0168 -0.32,-0.0168 z m -6.645545,-1.88749 0.215004,-0.34788 -0.369443,-0.36944 -0.369443,-0.36945 -0.285562,0.46205 -0.285558,0.46205 0.15777,0.25527 0.157769,0.25528 h 0.282231 0.28223 z m 204.749435,0.98888 -0.28667,-0.28434 -1.76,-0.0983 -1.76,-0.0983 0.0695,-4.32 0.0695,-4.32 0.0184,-5.3274 0.0184,-5.3274 0.43488,-0.36092 0.43488,-0.36092 4.27719,0.14226 4.27718,0.14226 0.16,0.0262 0.16,0.0262 0.0712,9.91986 0.0712,9.91986 -0.0712,0.0228 -0.0712,0.0228 -2.08,0.13893 -2.08,0.13894 -0.83333,0.14096 -0.83333,0.14096 -0.28667,-0.28434 z m 4.87112,-1.89855 0.35779,-0.45755 -0.18891,-6.26245 -0.1889,-6.26245 0.0293,-1.99169 0.0293,-1.9917 -0.51823,-0.13814 -0.51823,-0.13815 -2.84916,0.0656 -2.84917,0.0656 -0.23197,0.62709 -0.23198,0.62709 0.0411,7.99718 0.0411,7.99717 1.92,0.16 1.92,0.16 h 1.44 1.44 z m -26.23694,-4.35139 -0.20085,-0.5234 v -0.13383 -0.13383 h 0.65004 0.65005 l 0.19371,-0.50481 0.19372,-0.50481 -0.49895,-0.49895 -0.49894,-0.49894 -0.50482,0.19371 -0.50481,0.19372 v 1.13004 1.13004 h -0.48792 -0.48792 l -0.31208,-0.82083 -0.31208,-0.82083 v -1.57917 -1.57917 l 0.64,-0.64 0.64,-0.64 h 0.736 0.736 l 0.384,0.384 0.384,0.384 v 0.68704 0.68704 l 0.62656,0.72243 0.62656,0.72243 0.73344,-0.84491 0.73344,-0.8449 1.06751,0.21694 1.0675,0.21693 0.18741,0.4884 0.18742,0.48839 -0.50958,0.88789 -0.50958,0.88788 0.35223,0.11741 0.35223,0.11741 -0.20753,0.54081 -0.20752,0.54081 h -0.76045 -0.76044 l -0.5792,-0.64 -0.57919,-0.64 h -0.19452 -0.19453 l -0.31588,0.72 -0.31588,0.72 -0.99915,0.0972 -0.99915,0.0972 z m 4.75915,-2.71106 0.19777,-0.32 h -0.32 -0.32 l -0.19777,0.32 -0.19777,0.32 h 0.32 0.32 z m 3.16047,2.62669 -0.35421,-0.22669 -0.21302,-0.68323 -0.21302,-0.68322 0.37921,-0.83229 0.37921,-0.83228 0.7614,-0.49889 0.7614,-0.49889 -0.0486,-0.3856 -0.0486,-0.3856 0.0379,-0.41125 0.0379,-0.41127 0.64,0.34252 0.64,0.34252 0.002,1.34874 0.002,1.34874 0.47803,0.91658 0.47803,0.91658 v 0.27054 0.27054 l -0.88,-0.0558 -0.88,-0.0558 -0.80266,0.21541 -0.80266,0.2154 -0.35421,-0.22668 z m 1.43644,-2.16302 0.11691,-0.6033 -0.51691,0.429 -0.51691,0.429 v 0.30748 0.30749 l 0.4,-0.13319 0.4,-0.13318 z m -36.10573,-28.1302 -0.38719,-0.46654 0.828,-0.82801 0.82801,-0.82801 v -0.46545 -0.46546 l -0.68805,-0.68805 -0.68805,-0.68805 0.32046,-0.51195 0.32046,-0.51194 1.19205,-0.10078 1.19206,-0.10078 0.74773,0.48994 0.74773,0.48993 0.21149,0.96293 0.2115,0.96293 -0.48765,0.69622 -0.48765,0.69622 -1.66717,0.91169 -1.66716,0.91169 h -0.0697 -0.0697 z m 3.18882,-3.37347 v -0.64 h -0.48 -0.48 v 0.13383 0.13383 l 0.19424,0.50617 0.19424,0.50617 h 0.28576 0.28576 z m -29.76,3.2 -2.08,-0.16 -0.0893,-6.93537 -0.0893,-6.93538 0.40929,-0.25836 0.40928,-0.25836 3.36,-0.1003 3.36,-0.1003 0.36859,0.25404 0.36859,0.25404 0.12902,6.80207 0.12901,6.80208 -0.2459,0.39792 -0.2459,0.39792 h -1.8517 -1.85171 z m 4.72731,-7.09836 -0.0873,-5.86163 -2.60319,-0.0675 -2.60319,-0.0675 -0.16959,2.62752 -0.16959,2.62752 -0.0488,2.17769 -0.0488,2.17768 0.20271,0.92293 0.20271,0.92293 0.53883,0.10823 0.53883,0.10823 2.16731,0.0928 2.1673,0.0928 z m 10.45921,7.07654 -0.21127,-0.34183 0.0214,-7.0309 0.0213,-7.03089 0.18991,-0.30728 0.18992,-0.30727 3.58112,0.005 3.58111,0.005 0.34501,0.23509 0.34501,0.2351 -0.0568,6.96516 -0.0568,6.96516 -0.2128,0.21281 -0.21281,0.2128 -1.67537,0.23868 -1.67537,0.23867 -1.98111,0.0234 -1.98112,0.0234 -0.21125,-0.34183 z m 6.38765,-1.78625 0.20325,-0.52965 0.009,-5.4378 0.009,-5.4378 -0.28906,-0.28906 -0.28906,-0.28906 -2.2062,0.0957 -2.2062,0.0957 -0.20422,0.96 -0.20421,0.96 -0.0379,4.69383 -0.0378,4.69383 0.16755,0.43665 0.16756,0.43665 2.3579,0.0703 2.35791,0.0703 0.20324,-0.52965 z m -54.79872,1.52234 -0.33541,-0.20729 -0.34002,-0.89432 -0.34002,-0.89432 v -1.08028 -1.08029 l 0.32,-0.19776 0.32,-0.19777 v -0.30112 -0.30111 h -0.62111 -0.62112 l -0.21988,-0.35578 -0.21988,-0.35578 0.441,-0.27932 0.44099,-0.27932 0.85545,-0.005 0.85545,-0.005 0.96745,0.81405 0.96745,0.81406 0.19867,0.62594 0.19866,0.62595 h 1.07955 1.07955 l 0.19022,-0.30778 0.19021,-0.30777 0.86867,0.33457 0.86867,0.33456 1.49625,-0.19466 1.49625,-0.19466 0.18023,0.29161 0.18023,0.29161 -0.47648,0.39544 -0.47648,0.39544 v 0.28082 0.28082 h 0.50996 0.50996 l 0.16736,-0.64 0.16737,-0.64 h 0.42677 0.42678 l 0.2559,0.43239 0.2559,0.43239 1.34069,0.2083 1.34069,0.2083 0.21066,-0.34086 0.21066,-0.34085 -0.56779,-0.6274 -0.56778,-0.6274 0.40032,-0.39243 0.40032,-0.39244 0.77088,0.95868 0.77087,0.95868 0.49503,-0.70674 0.49502,-0.70674 2.03937,0.0157 2.03936,0.0156 0.75085,-0.48234 0.75085,-0.48234 1.2009,0.007 1.20089,0.007 0.18666,0.30202 0.18665,0.30202 -0.34355,0.41395 -0.34356,0.41396 0.77289,0.72609 0.77289,0.72609 -0.1816,0.52594 -0.1816,0.52593 -0.49644,0.4 -0.49645,0.4 h -0.89884 -0.89884 v -0.6241 -0.6241 l 0.50509,-0.28265 0.50509,-0.28267 -0.83413,-0.54653 -0.83412,-0.54655 -0.31097,0.19219 -0.31096,0.19218 -0.005,0.70112 -0.005,0.70111 -0.2383,0.37463 -0.23831,0.37463 -0.87982,0.22082 -0.87981,0.22082 -0.17587,0.28455 -0.17586,0.28455 h -0.91789 -0.91789 l -0.66618,-0.84692 -0.66619,-0.84691 -0.64762,0.58609 -0.64762,0.58609 -1.98942,-0.33728 -1.98942,-0.33727 -0.48,0.24573 -0.48,0.24572 -1.77677,0.22135 -1.77677,0.22135 -0.41896,-0.50482 -0.41896,-0.50482 0.20183,-0.80415 0.20183,-0.80416 h -0.4461 -0.4461 l -0.192,0.96 -0.192,0.96 h -0.488 -0.488 v -0.60082 -0.60081 l -0.44383,-0.36835 -0.44384,-0.36836 -0.83616,0.99373 -0.83617,0.99372 v 0.25812 0.25813 l -0.60457,0.1581 -0.60458,0.1581 -0.3354,-0.20729 z m 20.36055,-1.69827 0.384,-0.384 v -0.43778 -0.4378 l -0.93095,0.6629 -0.93095,0.66289 -0.56154,-0.21548 -0.56154,-0.21549 0.23137,0.37438 0.23138,0.37438 h 0.87712 0.87711 z m -18.496,-1.54138 v -0.52305 l -0.8,-0.75156 -0.8,-0.75157 v 1.19682 1.19682 l 0.36213,0.67663 0.36212,0.67664 0.43788,-0.59884 0.43787,-0.59883 z m 6.4,1.12538 v -0.48 h -0.32 -0.32 v 0.48 0.48 h 0.32 0.32 z m 62.16958,1.77053 -0.71043,-0.30282 -0.20865,-0.83134 -0.20865,-0.83133 -0.84093,0.0975 -0.84092,0.0975 v 0.79403 0.79405 l -0.55907,0.10924 -0.55906,0.10925 -0.2876,-0.75644 -0.2876,-0.75643 -0.50981,-0.42311 -0.50981,-0.42311 0.17536,-0.28374 0.17536,-0.28374 h 0.78546 0.78546 l 0.60621,-0.37859 0.60621,-0.37858 0.73587,0.4886 0.73587,0.4886 1.01284,-0.59759 1.01283,-0.59758 0.84074,0.31964 0.84074,0.31966 v 0.78903 0.78904 l 0.29438,0.18193 0.29437,0.18194 0.65278,-0.82988 0.65278,-0.82987 0.33285,0.20571 0.33284,0.20571 v 0.42688 0.42687 l 0.42297,0.16231 0.42296,0.16231 0.39856,-0.63819 0.39856,-0.63819 0.62603,0.56656 0.62605,0.56655 0.36775,-0.36775 0.36776,-0.36776 -0.37337,-0.81947 -0.37338,-0.81947 0.49956,-0.1917 0.49957,-0.19171 0.31698,0.31698 0.31697,0.31698 0.13872,1.11844 0.13872,1.11845 -0.59132,0.53514 -0.59133,0.53515 -2.68588,0.10774 -2.68588,0.10773 -1.44,0.20086 -1.44,0.20086 z m 1.45388,-1.71704 0.10347,-0.53349 h -0.64458 -0.64458 l -0.21988,0.35578 -0.21988,0.35578 0.44099,0.27902 0.441,0.27902 0.32,-0.10131 0.32,-0.10132 z m 10.2677,1.27208 -0.76053,-0.37917 -0.31302,-0.89008 -0.31303,-0.89009 0.33246,-0.52705 0.33245,-0.52706 0.8286,-0.61863 0.82859,-0.61864 1.08904,0.67307 1.08904,0.67306 0.70586,-0.49441 0.70587,-0.4944 0.39176,0.13797 0.39175,0.13797 0.74095,-0.2741 0.74096,-0.2741 0.61904,0.33131 0.61905,0.3313 v 0.3387 0.3387 l -0.65663,0.17171 -0.65663,0.17172 0.72592,0.77271 0.72592,0.77271 -0.34197,0.54562 -0.34197,0.54561 -0.67081,0.1001 -0.67081,0.10009 -0.65651,-0.35135 -0.65651,-0.35135 v -0.46874 -0.46875 h 0.71111 0.71111 l -0.65246,-0.65246 -0.65246,-0.65246 -0.49364,0.18943 -0.49365,0.18943 0.035,1.14982 0.035,1.14982 -0.39983,0.13982 -0.39983,0.13983 -0.1862,-0.58661 -0.18621,-0.58662 -0.29144,-0.72952 -0.29144,-0.72952 -0.96253,0.49774 -0.96252,0.49774 v 0.30378 0.30378 l 0.96,-0.192 0.96,-0.192 -0.005,0.28 -0.005,0.28 -0.2351,0.34335 -0.2351,0.34334 -0.51415,0.18902 -0.51416,0.18902 -0.76053,-0.37916 z m -77.11407,-6.94848 -0.61709,-0.61708 v -0.91685 -0.91685 l 0.66323,-0.84315 0.66323,-0.84315 h 0.73759 0.73759 l 0.34579,0.41665 0.34579,0.41665 -0.18812,0.71937 -0.18812,0.71937 -0.99849,0.46531 -0.99849,0.46532 1.68,-0.17236 1.68,-0.17236 v 0.29184 0.29184 l -0.4,0.30101 -0.4,0.301 -1.22291,0.35526 -1.22292,0.35526 z m 53.00374,-0.0445 -0.50083,-0.71503 v -0.52972 -0.52971 l 0.45359,-1.08558 0.45358,-1.08558 0.58642,-0.4735 0.58641,-0.4735 0.74508,-0.41838 0.74507,-0.41837 0.39084,0.32437 0.39084,0.32437 0.41366,1.614 0.41365,1.61401 0.69043,0.0102 0.69043,0.0102 0.61884,0.46812 0.61883,0.46812 1.02433,-1.1183 1.02432,-1.1183 h 0.51684 0.51684 l 0.64274,0.64274 0.64273,0.64273 1.28554,-0.85074 1.28555,-0.85073 0.79172,0.74378 0.79172,0.74378 v 0.74422 0.74422 l -0.64,0.64 -0.64,0.64 h -0.8 -0.8 v -0.47391 -0.4739 l 0.8,-0.20079 0.8,-0.20079 v -0.60531 -0.6053 h -0.48328 -0.48328 l -1.67581,1.17789 -1.6758,1.1779 -1.19672,-0.0706 -1.19672,-0.0706 -1.27755,-0.45075 -1.27755,-0.45074 -0.28827,0.51511 -0.28827,0.5151 -2.09755,0.11218 -2.09755,0.11217 z m 2.98576,-0.54521 0.4466,-0.28278 0.0866,-1.47968 0.0866,-1.47968 -0.73784,0.0988 -0.73784,0.0988 -0.48399,0.40168 -0.48399,0.40168 -0.21443,0.85433 -0.21442,0.85433 0.56419,0.41254 0.56419,0.41254 0.33883,-0.005 0.33884,-0.005 0.44659,-0.28278 z m -51.03659,0.56404 -0.22777,-0.36855 0.57625,-0.42136 0.57625,-0.42137 -0.85556,-0.32529 -0.85557,-0.32528 -0.17644,-0.4598 -0.17644,-0.45979 0.3559,-0.66501 0.3559,-0.665 h 0.92986 0.92985 l 0.18411,0.29788 0.1841,0.29789 -0.33044,0.20423 -0.33043,0.20422 0.1841,0.29789 0.1841,0.29789 h 0.41414 0.41415 l -0.12719,-1.52 -0.12719,-1.52 0.3244,-0.48 0.32439,-0.48 0.6129,0.37968 0.61289,0.37968 0.6915,-0.18083 0.69151,-0.18083 0.43699,0.59762 0.43699,0.59762 -0.15051,0.24353 -0.15051,0.24353 h -0.71711 -0.71712 l -0.384,0.384 -0.384,0.384 v 0.896 0.896 l 0.4,0.0354 0.4,0.0354 0.72,-0.0583 0.72,-0.0583 v 0.46371 0.46372 l -0.43314,0.35948 -0.43315,0.35949 -1.48054,-0.20293 -1.48054,-0.20293 -0.20055,0.52263 -0.20055,0.52263 h -0.74688 -0.74688 z m 64.89591,-0.0331 -0.32978,-0.39838 -0.36143,-1.99606 -0.36143,-1.99606 0.36135,-0.67519 0.36135,-0.67519 0.48811,0.69688 0.48812,0.69688 0.71216,-0.17874 0.71216,-0.17874 0.61124,0.44695 0.61124,0.44694 -0.21018,0.21018 -0.21017,0.21017 -0.58933,0.11151 -0.58932,0.1115 -0.56,0.0245 -0.56,0.0245 0.005,0.88 0.005,0.88 0.27933,0.441 0.27932,0.441 0.31902,-0.19717 0.31902,-0.19716 0.99637,0.34734 0.99638,0.34734 -0.13483,0.21816 -0.13483,0.21816 -1.58695,0.069 -1.58695,0.0691 -0.32977,-0.39838 z m 5.10987,-0.659 -0.69578,-0.74063 v -0.56041 -0.56041 l 0.33126,-0.61897 0.33126,-0.61896 h 0.80402 0.80402 l 0.78472,0.84673 0.78472,0.84672 v 0.57513 0.57513 l -0.7112,0.49815 -0.7112,0.49814 h -0.51302 -0.51302 z m 1.86422,-0.98514 v -0.44577 l -0.46975,-0.18026 -0.46975,-0.18026 -0.18913,0.30603 -0.18914,0.30602 0.19777,0.32 0.19777,0.32 h 0.46112 0.46111 z m -84.9438,0.67539 -0.47856,-0.73037 0.19222,-1.18451 0.19222,-1.1845 0.35896,-0.28216 0.35896,-0.28216 0.96,-0.31266 0.96,-0.31266 1.2,0.622 1.2,0.62201 v 0.5914 0.59141 l 1.12,0.85427 1.12,0.85426 v 0.44202 0.44202 h -0.40879 -0.4088 l -0.6902,-0.48343 -0.69019,-0.48343 -0.20794,0.33644 -0.20793,0.33645 -0.58615,-0.18603 -0.58614,-0.18603 -0.20581,0.33301 -0.20582,0.33302 h -1.25373 -1.25374 z m 3.72305,-1.10963 0.13389,-0.56 -0.12332,-0.57709 -0.12333,-0.57709 -1.33048,0.0971 -1.33049,0.0971 -0.10982,0.57869 -0.10982,0.57869 0.17702,0.46131 0.17702,0.46131 h 1.25272 1.25272 z m 22.83076,1.5362 -0.20863,-0.33759 -1.25896,0.20132 -1.25895,0.20131 -0.48173,-0.3998 -0.48174,-0.3998 v -1.04164 -1.04164 l 0.48271,-0.40061 0.48271,-0.40061 1.07139,0.17386 1.07139,0.17386 0.4459,-1.01218 0.4459,-1.01218 0.59399,-0.11026 0.59399,-0.11026 0.33645,0.33645 0.33645,0.33645 -0.3911,0.47124 -0.3911,0.47125 0.66066,0.35357 0.66066,0.35358 v 0.44718 0.44717 l -0.59587,0.18913 -0.59588,0.18912 -0.28891,1.00737 -0.28891,1.00737 -0.36589,0.12196 -0.36589,0.12196 z m -1.58789,-1.33198 0.21988,-0.35577 -0.43833,-0.2709 -0.43832,-0.2709 -0.27879,0.27879 -0.27879,0.2788 0.215,0.34788 0.215,0.34788 h 0.28223 0.28223 z m 62.0212,0.85559 -0.19701,-0.51341 0.13341,-2.09511 0.1334,-2.0951 0.46344,-0.2932 0.46344,-0.29319 0.21844,-0.005 0.21843,-0.005 0.21581,0.67995 0.21581,0.67995 -0.37334,0.23074 -0.37334,0.23073 0.8191,0.53669 0.81909,0.5367 v 0.62461 0.62463 l -0.94532,-0.18907 -0.94531,-0.18906 0.0653,0.88211 0.0653,0.88212 -0.39983,0.14156 -0.39983,0.14156 -0.19702,-0.51341 z m -132.84442,-2.78892 -0.39889,-0.39889 v -0.59647 -0.59648 l 1.04,0.10048 1.04,0.10047 v -0.48 -0.48 l -0.91335,0.0648 -0.91335,0.0648 0.16612,-0.63527 0.16613,-0.63527 -0.77278,-0.50635 -0.77277,-0.50634 v -0.29848 -0.29847 l 0.84672,-0.78472 0.84673,-0.78472 h 0.92013 0.92014 l 0.3753,0.82371 0.37531,0.82371 -0.40402,0.64694 -0.40402,0.64694 0.50185,0.55455 0.50186,0.55454 v 0.80521 0.8052 l -0.56,0.50467 -0.56,0.50466 -0.80111,0.19982 -0.80111,0.19983 z m 1.52111,-5.05201 v -0.30111 l -0.32,-0.19777 -0.32,-0.19777 -0.32522,0.20099 -0.32522,0.201 0.1841,0.29789 0.18411,0.29789 h 0.46111 0.46112 z m -28.922229,1.99223 -0.197779,-0.19778 v -0.59352 -0.59353 l 0.818053,-0.37273 0.818075,-0.37274 -0.20309,-1.20206 -0.20309,-1.20207 0.66503,-0.41531 0.66503,-0.41532 v -0.40303 -0.40302 h 0.59684 0.59685 l 0.82424,0.64835 0.82424,0.64834 0.21206,0.66815 0.21206,0.66814 1.08099,-0.17542 1.08099,-0.17542 0.18823,0.30456 0.18823,0.30456 0.82079,-0.64563 0.82079,-0.64563 h 0.56004 0.56004 l 0.49593,0.75688 0.49592,0.75687 -0.36312,0.36313 -0.36312,0.36312 h -0.416 -0.416 v 0.28576 0.28577 l 0.50617,0.19423 0.50617,0.19424 1.33383,-0.007 1.33383,-0.007 -0.75754,-0.58257 -0.75753,-0.58258 0.2139,-0.67394 0.2139,-0.67394 0.62363,-0.19794 0.62364,-0.19793 0.64831,0.20577 0.64832,0.20577 -0.0883,0.82223 -0.0883,0.82223 0.44454,0.15508 0.44454,0.15508 -0.2252,-0.36438 -0.2252,-0.36438 0.19213,-0.60532 0.19212,-0.60533 0.81914,-0.20559 0.81915,-0.20559 0.36938,0.28966 0.3694,0.28965 0.88,0.21022 0.88,0.21022 v 1.11391 1.1139 h -0.60082 -0.60082 l -0.39836,0.48 -0.39837,0.48 h -0.57796 -0.57796 l -0.49748,-0.49748 -0.49748,-0.49748 -0.72537,0.67817 -0.72538,0.67817 -0.8,-0.1782 -0.8,-0.17821 -1.87327,-0.0862 -1.87327,-0.0862 -0.69875,-0.87632 -0.69875,-0.87632 h -0.22801 -0.22798 v 0.60082 0.60082 l -0.46599,0.38673 -0.46598,0.38673 -0.33402,-0.20643 -0.33401,-0.20647 v -0.78105 -0.78111 h -0.32686 -0.32686 l -0.36451,0.8 -0.3645,0.8 -0.34864,0.0263 -0.34863,0.0263 -0.96,0.13276 -0.96,0.13276 -0.84222,0.14537 -0.842233,0.14537 -0.197776,-0.19778 z m 3.962229,-3.06711 v -1.056 l -0.384,-0.384 -0.384,-0.384 h -0.256 -0.256 v 0.93383 0.93382 l 0.19423,0.50618 0.19424,0.50617 h 0.44576 0.44577 z m 30.61333,3.08267 -0.21333,-0.21334 v -2.21333 -2.21333 l 0.4,0.13132 0.4,0.13132 0.37773,1.88939 0.37773,1.88939 -0.33691,0.40595 -0.33692,0.40596 h -0.22748 -0.22749 z m 4.81108,0.0111 -0.2363,-0.23631 -1.35406,-0.18073 -1.35405,-0.18072 -0.0946,-0.81055 -0.0945,-0.81054 0.78122,-0.73393 0.78123,-0.73392 0.91333,0.10447 0.91333,0.10447 v 0.86215 0.86214 l 0.34649,0.34835 0.34649,0.34834 0.50197,-0.19262 0.50198,-0.19263 0.18715,-0.69787 0.18717,-0.69786 0.004,-0.54753 0.004,-0.54754 -0.7157,-0.66678 -0.71571,-0.66679 0.47571,-0.30858 0.47571,-0.30857 0.79999,0.0829 0.8,0.0829 0.0984,1.01512 0.0984,1.01511 0.8982,0.31312 0.89821,0.31311 0.15782,0.82561 0.15783,0.8256 -0.4585,0.6546 -0.4585,0.6546 -1.49595,-0.0698 -1.49594,-0.0698 -0.80963,0.23836 -0.80964,0.23837 -0.23631,-0.23631 z m 4.25558,-1.71776 v -0.32 h -0.32 -0.32 v 0.32 0.32 h 0.32 0.32 z m -5.11999,-0.26667 v -0.26666 l -0.20464,-0.20464 -0.20463,-0.20463 -0.28059,0.17341 -0.28058,0.17341 0.1841,0.29789 0.18411,0.29789 h 0.30111 0.30112 z m 9.85328,1.72126 -2.1467,-0.33459 -0.35192,-0.35463 -0.35193,-0.35462 -0.0614,-2.52538 -0.0614,-2.52537 0.69204,-0.0986 0.69204,-0.0986 -0.17158,1.27926 -0.17159,1.27927 0.20564,0.81933 0.20564,0.81932 h 0.3139 0.31397 v -0.4304 -0.43041 l 0.58519,-0.52959 0.5852,-0.5296 h 0.65562 0.65562 l 0.40623,0.48948 0.40623,0.48947 -0.36705,0.80558 -0.36704,0.80558 v 0.14495 0.14494 h 0.96 0.96 l -0.005,0.24 -0.005,0.24 -0.23509,0.34334 -0.23511,0.34334 -0.48,0.15125 -0.48,0.15124 -2.1467,-0.33458 z m -24.30388,-1.45459 -0.70976,-0.96 h -0.23757 -0.23756 l -0.10226,0.72 -0.10225,0.72 h -0.45698 -0.45698 l -0.23947,-0.89542 -0.23947,-0.89542 -0.82355,-0.64781 -0.82355,-0.6478 v -0.45671 -0.45677 h 0.48 0.48 v 0.32 0.32 h 0.52287 0.52287 l 1.27328,0.38148 1.27327,0.38148 0.79415,1.20005 0.79416,1.20005 -0.20919,0.33847 -0.20918,0.33847 h -0.29154 -0.29154 z m -92.109409,-0.16 v -0.53333 l 0.344,0.11466 0.344,0.11467 v 0.304 0.304 l -0.344,0.11467 -0.344,0.11466 z m 1.9748,-0.69401 0.11174,-0.58599 0.7452,-0.10599 0.7452,-0.10598 -0.11174,0.58598 -0.11174,0.58599 -0.7452,0.10599 -0.7452,0.10598 z m 2.22716,-0.53543 -0.35641,-0.42945 0.23723,-0.23717 0.23722,-0.23718 0.0468,-1.97338 0.0468,-1.97338 0.0694,-4.96 0.0694,-4.96 -0.21112,-0.50969 -0.21111,-0.5097 -8.54507,0.0697 -8.54507,0.0697 -0.8537,0.22808 -0.85371,0.22808 -0.34629,-0.64706 -0.3463,-0.6470498 v -0.7003 -0.70029 l 6.48,0.22351 6.48,0.22352 18.08,-0.0312 18.080002,-0.0312 1.387706,-0.52716 1.387705,-0.52715 0.287395,0.45406 0.287392,0.45405 0.0049,0.70874 0.0049,0.70874 -0.661512,0.3540298 -0.661504,0.35403 -14.501465,-0.19005 -14.501469,-0.1900498 -0.14851,0.4072798 -0.14852,0.40728 -0.0696,7.30864 -0.0695,7.30864 -0.1732,0.45136 -0.17319,0.45136 h -0.72658 -0.72658 z m 221.238039,-0.11897 -0.64,-0.11651 -0.72,-0.15364 -0.72,-0.15363 v -0.31391 -0.3139 h 1.12 1.12 v -0.32792 -0.32792 l -0.88,-0.3317 -0.88,-0.33169 -0.85123,-0.42151 -0.85124,-0.42151 -0.7577,0.14485 -0.7577,0.14484 -0.60066,-0.66372 -0.60066,-0.66372 h -0.4304 -0.43041 v 0.32 0.32 h -0.33031 -0.33031 l -0.26764,-0.72 -0.26764,-0.72 0.15219,-0.4 0.15219,-0.4 h 0.86589 0.86589 l 0.91974,0.96 0.91974,0.96 h 0.42013 0.42013 v -0.33448 -0.33454 l 0.78546,-0.78546 0.78545,-0.78545 h 1.24121 1.24122 l 0.21403,0.21403 0.21403,0.21403 -0.43892,0.50597 -0.43891,0.50597 -0.16535,0.92155 -0.16535,0.92155 0.92436,0.3489 0.92437,0.34891 0.17985,0.56668 0.17986,0.56668 -0.19848,0.32114 -0.19847,0.32115 -0.54218,0.26577 -0.54218,0.26577 z m -1.12,-4.23271 v -0.62111 l -0.29789,-0.18411 -0.29788,-0.1841 -0.18316,0.29634 -0.18314,0.29634 0.19527,0.50888 0.19528,0.50888 h 0.28576 0.28576 z m 22.72,2.86892 -0.48,-0.318 -0.84082,-0.005 -0.84081,-0.005 -0.39837,-0.48 -0.39836,-0.48 h -0.44082 -0.44082 v 0.32 0.32 h -0.93333 -0.93333 l -0.14109,-0.4 -0.14108,-0.4 -0.95683,0.54929 -0.95683,0.54929 -1.88598,-0.1742 -1.88597,-0.17419 -0.40278,-0.33428 -0.40278,-0.33428 v -0.58297 -0.58297 l 0.7205,-0.83763 0.7205,-0.83763 1.3595,-0.18235 1.3595,-0.18235 v 0.65547 0.65547 l -0.4,0.14552 -0.4,0.14552 0.36504,0.60115 0.36503,0.60114 0.87387,-0.0656 0.87387,-0.0656 0.18424,-0.18424 0.18424,-0.18424 -0.0329,-1.16054 -0.0329,-1.16054 -0.51024,-0.28555 -0.51025,-0.28555 v -0.618 -0.618 l 0.80416,-0.20183 0.80415,-0.20183 0.47585,0.39491 0.47584,0.39492 v 0.84961 0.84962 l 0.49815,0.7112 0.49814,0.7112 h 0.25785 0.25785 l -0.096,-0.88 -0.096,-0.88 -0.18753,-1.00287 -0.18753,-1.00287 0.47827,-0.18353 0.47828,-0.18353 0.52476,0.52475 0.52476,0.52476 -0.18118,1.32184 -0.18118,1.32184 0.183,0.69981 0.183,0.6998 h 0.26522 0.26522 l 0.41969,-0.88 0.41968,-0.88 1.03778,-0.10027 1.03777,-0.10028 v 0.32902 0.32901 l -0.63676,0.34079 -0.63677,0.34078 0.38091,0.60993 0.38091,0.60993 0.60369,0.15786 0.60369,0.15787 -0.11057,0.58268 -0.11057,0.58268 -0.79726,0.0829 -0.79727,0.0829 z m -10.29774,-2.51287 0.10225,-0.69493 h -0.33099 -0.331 l -0.32,0.59792 -0.32,0.59793 0.20874,0.20874 0.20874,0.20874 0.34,-0.11173 0.34,-0.11173 z m -132.10225,2.31733 -0.48,-0.10952 -1.89356,-0.0914 -1.89355,-0.0914 -0.11997,-0.36057 -0.11997,-0.36058 0.41352,-0.14321 0.41353,-0.14321 2.49656,0.1396 2.49657,0.13959 -0.0966,0.49767 -0.0966,0.49767 -0.32,0.0674 -0.32,0.0674 z m 89.64493,-0.4752 -0.75506,-0.30238 0.51506,-0.78608 0.51506,-0.78608 v -0.57538 -0.57538 l -0.72,-0.31588 -0.72,-0.31588 v -0.45698 -0.45697 l 0.95859,-0.25637 0.95858,-0.25637 1.09139,0.30135 1.09138,0.30134 0.85374,0.81794 0.85374,0.81793 -0.14092,0.96011 -0.14091,0.9601 -0.80595,0.63396 -0.80595,0.63396 -0.99684,-0.0203 -0.99685,-0.0203 z m 3.15506,-2.02914 v -0.42949 l -0.46598,-0.38673 -0.46598,-0.38673 -0.33402,0.20644 -0.33402,0.20643 v 0.72778 0.72778 l 0.20208,0.20208 0.20207,0.20207 0.59793,-0.32 0.59792,-0.32 z m 6.42671,1.49208 -0.65974,-0.88 -0.35121,-0.41617 -0.35121,-0.41618 -0.43306,0.35941 -0.43306,0.35942 -0.0992,0.69349 -0.0992,0.69349 -0.56,0.10673 -0.56,0.10674 v -0.64054 -0.64061 l -0.52342,-0.52343 -0.52343,-0.52342 0.28343,-0.23411 0.28342,-0.2341 1.18946,-0.40223 1.18946,-0.40222 0.64321,0.34423 0.6432,0.34424 0.64734,-0.64734 0.64733,-0.64733 h 0.32 0.32 l 0.68805,0.68805 0.68806,0.68805 0.51194,-0.36881 0.51195,-0.36882 0.76227,-0.32738 0.76226,-0.32739 0.61535,0.1953 0.61535,0.19531 -0.12401,0.37284 -0.12402,0.37285 -0.9336,0.1842 -0.9336,0.1842 1.36,0.38813 1.36,0.38814 v 0.44952 0.44952 l -0.7112,0.49814 -0.7112,0.49815 h -0.38594 -0.38594 l -0.50307,-0.50306 -0.50306,-0.50307 -0.84295,0.66307 -0.84295,0.66306 h -0.89362 -0.89362 z m 3.17329,-1.09746 v -0.27473 l -0.88,0.21034 -0.88,0.21033 -0.27416,0.15576 -0.27417,0.15576 0.4047,0.25011 0.4047,0.25012 0.74946,-0.34148 0.74947,-0.34148 z m 4.92907,1.21225 -0.18578,-0.48414 0.18483,-0.29907 0.18484,-0.29906 -0.47648,-0.39544 -0.47648,-0.39545 v -0.43337 -0.43344 l 0.77854,-0.51012 0.77854,-0.51012 0.68628,0.36729 0.68628,0.36728 -0.19253,0.50174 -0.19254,0.50173 0.51577,0.56992 0.51576,0.56991 -0.11071,0.58381 -0.11071,0.58381 -1.19991,0.0995 -1.19991,0.0995 z m 19.90517,-0.061 -0.19424,-0.50617 v -1.23157 -1.23157 l -0.72,-0.10226 -0.72,-0.10225 0.0611,-0.32 0.0611,-0.32 0.73889,-0.20811 0.73888,-0.2081 1.32082,-0.0319 1.32082,-0.0319 0.39522,0.47621 0.39522,0.47622 -0.51604,0.19802 -0.51604,0.19802 -0.47074,-0.18064 -0.47074,-0.18064 -0.471,0.47101 -0.47102,0.47101 0.33445,0.9594 0.33445,0.9594 -0.18266,0.47599 -0.18265,0.476 h -0.29581 -0.2958 z m -16.62912,-0.84074 -0.19638,-0.73308 -0.004,-1.18495 -0.004,-1.18494 0.37137,-0.81506 0.37136,-0.81505 h 0.28433 0.28432 l -0.0555,-3.22415 -0.0556,-3.22414 0.27986,-0.2649 0.27986,-0.2649 8.03678,-0.19583 8.03677,-0.19582 0.34626,0.41721 0.34627,0.41722 -0.0245,3.56116 -0.0244,3.56116 -0.52149,0.13637 -0.52149,0.13637 -4.1571,0.0819 -4.15711,0.0819 -3.77314,0.088 -3.77314,0.088 -0.20951,0.20951 -0.2095,0.20951 -0.0173,1.80247 -0.0173,1.80248 -0.35926,0.12129 -0.35925,0.1213 -0.19638,-0.73309 z m 13.39488,-5.14111 3.2,-0.072 v -2.56 -2.56 l -6.80191,0.0286 -6.80191,0.0286 -0.16543,0.16542 -0.16543,0.16543 -0.12264,2.48537 -0.12264,2.48537 2.51786,-0.14576 2.51785,-0.14575 0.32785,0.20262 0.32785,0.20262 1.04428,-0.10427 1.04427,-0.10427 z m -1.05866,5.50403 0.11466,-0.344 h 0.304 0.304 l 0.11467,0.344 0.11467,0.344 h -0.53334 -0.53333 z m -132.30133,-2.13591 -14,-0.0868 -0.0227,-0.23664 -0.0227,-0.23664 -0.13196,-3.24446 -0.13196,-3.24447 1.41805,-0.21265 1.41804,-0.21265 1.69662,0.0438 1.69661,0.0438 11.61413,-0.0368 11.61413,-0.0368 0.33143,0.20484 0.33144,0.20484 -0.17015,2.44531 -0.17014,2.44531 -0.0154,1.2 -0.0154,1.2 -0.72,-0.0765 -0.71999,-0.0765 z m 13.13482,-1.52626 1.05482,-0.18839 -0.0948,-1.98272 -0.0948,-1.98272 -3.36,-0.18788 -3.36,-0.18788 -2.72,0.18788 -2.72,0.18788 -6.46925,-0.16 -6.46925,-0.16 -0.73075,0.17323 -0.73075,0.17323 -0.095,1.97691 -0.095,1.9769 0.73501,0.17154 0.73502,0.17154 4,0.0783 4,0.0783 7.68,-0.0689 7.68,-0.0689 z m -33.21482,-8.69785 v -0.30239 l -6.800005,0.099 -6.800003,0.099 -2.342809,-0.3157398 -2.34281,-0.31574 -0.45719,-0.45719 -0.457191,-0.45719 v -0.37912 -0.37919 l 1.443008,0.21639 1.443005,0.2164 12.876995,-0.031 12.877,-0.031 0.96,-0.0691 0.96,-0.0691 0.0969,0.67927 0.0969,0.67927 -0.51884,0.1991 -0.51885,0.1991 -4.85807,0.031 -4.85807,0.031 -0.4,0.32983 -0.4,0.32983 v -0.30239 z m 30.27861,-1.1668398 -0.15484,-0.59087 0.17235,-0.44913 0.17235,-0.44914 h 0.58688 0.58688 l 0.20191,0.3267 0.20191,0.3267 6.45696,-0.1894 6.45698,-0.1894 7.5859,-0.007 7.58592,-0.008 0.37327,-0.44977 0.37328,-0.44977 h 0.44768 0.44768 l 0.36988,0.81182 0.3699,0.81182 -0.53543,0.53543 -0.53543,0.53543 -15.5046,0.0127 -15.50458,0.0127 -0.15485,-0.59087 z"/>
</svg>
