<?xml version="1.0" encoding="utf-8"?>
<svg xmlns="http://www.w3.org/2000/svg" xmlns:svg="http://www.w3.org/2000/svg" version="1.1" viewBox="0 0 1400 440">
	<title>The titlepage for the Standard Ebooks edition of Poirot Investigates, by Agatha Christie</title>
	<g aria-label="POIROT">
		<path d="M 505.52266,52.807016 V 130 h 17.59064 v -28.63158 h 10.5731 c 15.06433,0 26.38597,-8.888888 26.38597,-24.795322 0,-16 -11.32164,-23.766082 -26.38597,-23.766082 z M 523.1133,87.333333 V 66.842104 h 4.95907 c 6.92397,0 13.47368,2.339181 13.47368,10.292398 0,7.859649 -6.54971,10.198831 -13.47368,10.198831 z"/>
		<path d="m 569.37792,91.356724 c 0,22.549706 16.09357,40.046786 38.92398,40.046786 22.17544,0 38.83041,-17.49708 38.83041,-40.046786 0,-22.549708 -17.40351,-39.953217 -38.83041,-39.953217 -21.23977,0 -38.92398,17.403509 -38.92398,39.953217 z m 18.99415,0 c 0,-11.508772 6.36258,-23.017544 19.92983,-23.017544 13.66082,0 19.83626,11.508772 19.83626,23.017544 0,11.508776 -5.80117,23.017546 -19.83626,23.017546 -14.40936,0 -19.92983,-11.50877 -19.92983,-23.017546 z"/>
		<path d="M 677.48464,52.807016 H 659.894 V 130 h 17.59064 z"/>
		<path d="M 693.76828,52.807016 V 130 h 17.59064 V 99.497075 L 734.93787,130 h 22.36257 l -26.5731,-31.906433 c 9.4503,-2.994152 15.81287,-10.760234 15.81287,-22.362574 0,-15.157895 -10.8538,-22.923977 -25.16959,-22.923977 z m 17.59064,34.245615 V 66.842104 h 2.05848 c 6.64328,0 14.59649,0.467836 14.59649,10.105263 0,9.637428 -7.95321,10.105264 -14.59649,10.105264 z"/>
		<path d="m 762.375,91.356724 c 0,22.549706 16.09357,40.046786 38.92398,40.046786 22.17544,0 38.83041,-17.49708 38.83041,-40.046786 0,-22.549708 -17.40351,-39.953217 -38.83041,-39.953217 -21.23977,0 -38.92398,17.403509 -38.92398,39.953217 z m 18.99415,0 c 0,-11.508772 6.36258,-23.017544 19.92983,-23.017544 13.66082,0 19.83626,11.508772 19.83626,23.017544 0,11.508776 -5.80117,23.017546 -19.83626,23.017546 -14.40936,0 -19.92983,-11.50877 -19.92983,-23.017546 z"/>
		<path d="M 845.10162,68.245613 H 863.4408 V 130 h 17.59064 V 68.245613 h 18.33919 V 52.807016 h -54.26901 z"/>
	</g>
	<g aria-label="INVESTIGATES">
		<path d="M 351.8633,152.80702 H 334.27265 V 230 h 17.59065 z"/>
		<path d="m 385.73757,182.09357 h 0.18713 L 416.61476,230 h 17.59064 v -77.19298 h -17.59064 v 47.90643 h -0.18713 L 385.73757,152.80702 H 368.14692 V 230 h 17.59065 z"/>
		<path d="m 466.54897,230 h 13.84795 l 32.37427,-77.19298 h -19.83626 l -19.46198,50.71345 -19.46199,-50.71345 H 434.1747 Z"/>
		<path d="M 564.85453,152.80702 H 520.69079 V 230 h 44.16374 v -15.4386 h -26.57309 v -15.53216 h 25.45029 v -15.4386 h -25.45029 v -15.34503 h 26.57309 z"/>
		<path d="m 608.41154,151.40351 c -12.44444,0 -25.16959,9.16959 -25.16959,23.57895 0,8.04678 5.4269,15.25146 14.69006,19.83625 9.16959,4.5848 17.40351,7.11111 17.40351,12.72515 0,7.20468 -7.29825,7.57895 -11.1345,7.57895 -8.60819,0 -18.90059,-8.70176 -18.90059,-8.70176 l -8.79532,14.78363 c 0,0 10.94737,10.19883 29.00585,10.19883 15.06433,0 29.09941,-6.45614 29.09941,-24.88889 0,-10.10526 -9.45029,-17.40351 -18.05848,-21.05263 -8.79532,-3.74269 -16.09356,-6.83041 -16.09356,-11.13451 0,-4.21052 3.18128,-6.92397 9.16959,-6.92397 7.95321,0 15.62573,5.33333 15.62573,5.33333 l 7.11111,-14.03509 c 0,0 -9.91813,-7.29824 -23.95322,-7.29824 z"/>
		<path d="m 638.3984,168.24561 h 18.33918 V 230 h 17.59064 v -61.75439 h 18.33919 V 152.80702 H 638.3984 Z"/>
		<path d="M 721.59282,152.80702 H 704.00218 V 230 h 17.59064 z"/>
		<path d="m 807.67765,186.77193 h -35.64913 v 13.56725 h 17.77778 c 0,9.45029 -8.32748,14.87719 -16.74854,14.87719 -10.8538,0 -19.64912,-10.66666 -19.64912,-23.76608 0,-13.38012 8.79532,-24.14035 19.64912,-24.14035 6.83041,0 12.72515,2.71345 17.21638,9.91813 l 11.50877,-12.63158 c -6.73684,-8.14035 -16.18714,-13.19298 -29.75439,-13.19298 -21.7076,0 -37.61403,17.87134 -37.61403,40.04678 0,22.08187 16.8421,39.95322 37.61403,39.95322 15.1579,0 31.4386,-8.32749 35.64913,-27.88304 z"/>
		<path d="M 859.56651,152.80702 H 843.2858 L 812.12791,230 h 18.90058 l 5.70761,-15.4386 h 29.38011 L 871.82382,230 h 18.90058 z m 0.5614,46.31579 H 842.7244 l 8.60819,-22.45614 h 0.18713 z"/>
		<path d="m 889.20977,168.24561 h 18.33918 V 230 h 17.59065 v -61.75439 h 18.33918 v -15.43859 h -54.26901 z"/>
		<path d="M 998.97735,152.80702 H 954.81361 V 230 h 44.16374 v -15.4386 h -26.5731 v -15.53216 h 25.4503 v -15.4386 h -25.4503 v -15.34503 h 26.5731 z"/>
		<path d="m 1042.5344,151.40351 c -12.4445,0 -25.1696,9.16959 -25.1696,23.57895 0,8.04678 5.4269,15.25146 14.69,19.83625 9.1696,4.5848 17.4035,7.11111 17.4035,12.72515 0,7.20468 -7.2982,7.57895 -11.1345,7.57895 -8.6082,0 -18.9006,-8.70176 -18.9006,-8.70176 l -8.7953,14.78363 c 0,0 10.9474,10.19883 29.0059,10.19883 15.0643,0 29.0994,-6.45614 29.0994,-24.88889 0,-10.10526 -9.4503,-17.40351 -18.0585,-21.05263 -8.7953,-3.74269 -16.0936,-6.83041 -16.0936,-11.13451 0,-4.21052 3.1813,-6.92397 9.1696,-6.92397 7.9533,0 15.6258,5.33333 15.6258,5.33333 l 7.1111,-14.03509 c 0,0 -9.9182,-7.29824 -23.9532,-7.29824 z"/>
	</g>
	<g aria-label="AGATHA CHRISTIE">
		<path d="M 370.28345,332.10526 H 358.07292 L 334.7045,390 h 14.17544 l 4.2807,-11.57895 h 22.03509 L 379.47643,390 h 14.17544 z m 0.42105,34.73685 H 357.65187 L 364.10801,350 h 0.14035 z"/>
		<path d="M 453.19244,357.57895 H 426.4556 v 10.17544 h 13.33333 c 0,7.08772 -6.24561,11.15789 -12.5614,11.15789 -8.14035,0 -14.73685,-8 -14.73685,-17.82456 0,-10.03509 6.5965,-18.10526 14.73685,-18.10526 5.1228,0 9.54386,2.03508 12.91228,7.43859 l 8.63158,-9.47368 c -5.05264,-6.10526 -12.14036,-9.89474 -22.31579,-9.89474 -16.28071,0 -28.21053,13.40351 -28.21053,30.03509 0,16.5614 12.63158,29.96491 28.21053,29.96491 11.36842,0 23.57894,-6.24561 26.73684,-20.91228 z"/>
		<path d="M 493.3591,332.10526 H 481.14857 L 457.78015,390 h 14.17544 l 4.2807,-11.57895 h 22.03509 L 502.55208,390 h 14.17544 z m 0.42105,34.73685 H 480.72752 L 487.18366,350 h 0.14035 z"/>
		<path d="m 516.84156,343.68421 h 13.75439 V 390 h 13.19298 v -46.31579 h 13.75439 v -11.57895 h -40.70176 z"/>
		<path d="m 580.48739,366.77193 h 18.66667 V 390 h 13.19298 v -57.89474 h -13.19298 v 23.08772 H 580.48739 V 332.10526 H 567.29441 V 390 h 13.19298 z"/>
		<path d="M 655.15185,332.10526 H 642.94133 L 619.57291,390 h 14.17544 l 4.2807,-11.57895 h 22.03508 L 664.34484,390 h 14.17543 z m 0.42106,34.73685 H 642.52028 L 648.97642,350 h 0.14035 z"/>
		<path d="m 738.51261,378.07018 c -13.26316,0 -19.08772,-9.26316 -19.08772,-17.05264 0,-7.71929 5.82456,-16.98245 19.08772,-16.98245 6.73684,0 11.36842,3.57895 11.36842,3.57895 l 5.61403,-11.22807 c 0,0 -6.45614,-5.33334 -19.01754,-5.33334 -16.42105,0 -31.36842,13.47369 -31.36842,30.10527 0,16.5614 15.01754,29.89473 31.36842,29.89473 12.5614,0 19.01754,-5.33333 19.01754,-5.33333 l -5.61403,-11.22807 c 0,0 -4.63158,3.57895 -11.36842,3.57895 z"/>
		<path d="m 778.80427,366.77193 h 18.66667 V 390 h 13.19298 v -57.89474 h -13.19298 v 23.08772 H 778.80427 V 332.10526 H 765.61129 V 390 h 13.19298 z"/>
		<path d="M 824.06524,332.10526 V 390 h 13.19298 V 367.12281 L 854.94243,390 h 16.77193 l -19.92982,-23.92982 c 7.08772,-2.24562 11.85965,-8.07018 11.85965,-16.77193 0,-11.36842 -8.14035,-17.19299 -18.8772,-17.19299 z m 13.19298,25.68421 v -15.15789 h 1.54386 c 4.98246,0 10.94737,0.35088 10.94737,7.57895 0,7.22807 -5.96491,7.57894 -10.94737,7.57894 z"/>
		<path d="M 892.55974,332.10526 H 879.36675 V 390 h 13.19299 z"/>
		<path d="m 925.98518,331.05263 c -9.33333,0 -18.87719,6.8772 -18.87719,17.68421 0,6.03509 4.07017,11.4386 11.01754,14.8772 6.8772,3.43859 13.05263,5.33333 13.05263,9.54385 0,5.40351 -5.47368,5.68422 -8.35087,5.68422 -6.45614,0 -14.17544,-6.52632 -14.17544,-6.52632 l -6.59649,11.08772 c 0,0 8.21052,7.64912 21.75438,7.64912 11.29825,0 21.82456,-4.8421 21.82456,-18.66666 0,-7.57895 -7.08771,-13.05264 -13.54385,-15.78948 -6.5965,-2.80702 -12.07018,-5.12281 -12.07018,-8.35088 0,-3.15789 2.38596,-5.19298 6.87719,-5.19298 5.96491,0 11.7193,4 11.7193,4 l 5.33333,-10.52631 c 0,0 -7.43859,-5.47369 -17.96491,-5.47369 z"/>
		<path d="m 949.72532,343.68421 h 13.75439 V 390 h 13.19298 v -46.31579 h 13.75439 v -11.57895 h -40.70176 z"/>
		<path d="m 1013.3711,332.10526 h -13.1929 V 390 h 13.1929 z"/>
		<path d="m 1059.9567,332.10526 h -33.1228 V 390 h 33.1228 v -11.57895 h -19.9299 v -11.64912 h 19.0878 v -11.57895 h -19.0878 v -11.50877 h 19.9299 z"/>
	</g>
</svg>
